<svg width="301" height="276" viewBox="0 0 301 276" fill="none" xmlns="http://www.w3.org/2000/svg">
<path d="M153.047 45.2023C148.515 49.8507 138.475 61.2391 134.57 69.6062C130.665 77.9732 126.203 85.8754 124.46 88.7806C123.623 90.1752 119.579 91.7337 113.304 88.7806C107.028 85.8276 97.6155 79.7163 85.7622 77.6246C83.0894 76.5787 77.6043 73.5108 77.0465 69.6062C76.3492 64.7254 78.0924 58.1015 81.23 52.5235C84.3677 46.9454 100.404 19.7525 118.882 7.20197C119.467 6.82186 120.3 6.35052 121.322 5.86237C124.362 4.41042 129.072 2.80973 133.873 3.01845C140.287 3.29735 168.619 4.29675 181.983 4.76158C189.188 5.45884 205.62 13.1983 213.708 38.5784L217.194 47.6427L231.14 39.9729C228.815 50.7803 222.215 75.8117 214.405 89.4779C191.745 94.7073 157.231 84.5971 157.231 84.5971L170.13 73.0924C167.059 65.7476 161.856 53.9053 156.429 42.7619C155.534 43.5754 153.605 45.2023 153.047 45.2023Z" fill="#7D9561"/>
<path d="M143.983 44.1564C147.051 46.9454 151.304 45.3185 153.047 44.1564L151.304 35.4407L138.056 14.1745L121.322 7.5506L111.212 12.78L111.909 16.6149C130.038 21.147 140.148 40.6701 143.983 44.1564Z" fill="#374923"/>
<path d="M83.6704 67.1658C83.6704 66.8171 82.9731 66.1199 83.6704 64.0281M84.3677 61.9364C90.2943 49.9669 105.564 23.936 119.23 15.569M125.157 14.1745C126.203 14.1745 143.634 27.4223 148.166 41.716M210.222 84.9457H208.479M204.993 84.9457C199.182 85.1782 184.075 85.0852 170.13 82.854" stroke="#161719" stroke-linejoin="round"/>
<path d="M121.322 5.86237C120.3 6.35052 119.467 6.82186 118.882 7.20197C100.404 19.7525 84.3677 46.9454 81.23 52.5235C78.0924 58.1015 76.3492 64.7254 77.0465 69.6062C77.6043 73.5108 83.0894 76.5787 85.7622 77.6246C97.6155 79.7163 107.028 85.8276 113.304 88.7806C119.579 91.7337 123.623 90.1752 124.46 88.7806C126.203 85.8754 130.665 77.9732 134.57 69.6062C138.475 61.2391 148.515 49.8507 153.047 45.2023C153.605 45.2023 155.534 43.5754 156.429 42.7619M121.322 5.86237C124.362 4.41042 129.072 2.80973 133.873 3.01845C140.287 3.29735 168.619 4.29675 181.983 4.76158C189.188 5.45884 205.62 13.1983 213.708 38.5784L217.194 47.6427L231.14 39.9729C228.815 50.7803 222.215 75.8117 214.405 89.4779C191.745 94.7073 157.231 84.5971 157.231 84.5971L170.13 73.0924C167.059 65.7476 161.856 53.9053 156.429 42.7619M121.322 5.86237C131.084 8.69531 139.334 14.9084 142.24 17.6608C146.138 22.6341 151.38 32.3956 156.429 42.7619" stroke="#161719" stroke-width="6" stroke-linejoin="round"/>
<path d="M230.568 184.416C228.27 178.344 222.192 164.431 216.259 157.356C210.326 150.281 205.05 142.898 203.154 140.09C202.244 138.742 202.54 134.418 207.869 129.979C213.197 125.54 222.714 119.592 229.619 109.733C231.697 107.752 236.795 104.078 240.57 105.222C245.288 106.653 250.555 111.032 254.284 116.233C258.013 121.434 275.881 147.461 279.447 169.511C279.544 170.202 279.619 171.156 279.63 172.289C279.661 175.658 279.121 180.603 276.903 184.866C273.939 190.561 261.06 215.816 254.991 227.732C251.314 233.967 237.355 245.589 210.935 242.193L201.246 241.522L202.304 257.402C193.492 250.728 173.595 234.167 164.51 221.314C169.347 198.566 193.096 171.559 193.096 171.559L198.071 188.111C206.026 188.433 218.958 188.721 231.351 188.512C230.992 187.357 230.332 184.921 230.568 184.416Z" fill="#7D9561"/>
<path d="M235.347 176.643C231.522 178.245 231.199 182.787 231.516 184.858L240.152 186.962L265.024 183.942L278.1 171.576L277.633 160.203L273.863 159.214C262.094 173.729 240.127 174.641 235.347 176.643Z" fill="#374923"/>
<path d="M239.982 112.257C240.298 112.404 241.225 112.067 242.826 113.583M244.427 115.099C252.77 125.529 269.909 150.369 271.716 166.291M270.476 172.252C270.034 173.2 250.66 183.399 235.79 181.466M170.385 219.438L171.122 217.858M172.595 214.698C174.84 209.334 181.309 195.681 189.224 183.986" stroke="#161719" stroke-linejoin="round"/>
<path d="M279.63 172.289C279.619 171.156 279.544 170.202 279.447 169.511C275.881 147.461 258.013 121.434 254.284 116.233C250.555 111.032 245.288 106.653 240.57 105.222C236.795 104.078 231.697 107.752 229.619 109.733C222.714 119.592 213.197 125.54 207.869 129.979C202.54 134.418 202.244 138.742 203.154 140.09C205.05 142.898 210.326 150.281 216.259 157.356C222.192 164.431 228.271 178.344 230.568 184.416C230.332 184.921 230.992 187.357 231.351 188.512M279.63 172.289C279.661 175.658 279.121 180.603 276.903 184.866C273.939 190.561 261.06 215.816 254.991 227.732C251.314 233.967 237.355 245.589 210.935 242.193L201.246 241.522L202.304 257.402C193.492 250.728 173.595 234.167 164.51 221.314C169.347 198.566 193.096 171.559 193.096 171.559L198.071 188.111C206.026 188.433 218.958 188.721 231.351 188.512M279.63 172.289C272.937 179.939 263.819 184.791 260.096 186.261C253.942 187.692 242.879 188.317 231.351 188.512" stroke="#161719" stroke-width="6" stroke-linejoin="round"/>
<path d="M71.2515 188.664C77.3798 190.807 91.9445 195.094 101.178 195.097C110.411 195.099 119.459 195.804 122.828 196.156C124.446 196.325 127.568 199.332 127.543 206.267C127.519 213.202 125.958 224.316 129.072 235.943C129.254 238.807 128.791 245.075 125.488 247.231C121.359 249.925 114.619 251.145 108.238 250.659C101.857 250.172 70.434 247.13 51.2505 235.688C50.6588 235.319 49.8794 234.763 49.005 234.043C46.4043 231.901 42.9632 228.309 41.1235 223.87C38.6653 217.938 27.5975 191.839 22.3709 179.53C19.9579 172.706 20.0278 154.542 39.6118 136.486L46.3534 129.496L33.5088 120.098C44.2859 117.637 69.7616 113.041 85.4477 114.343C99.764 132.671 105.187 168.224 105.187 168.224L89.3091 161.395C83.95 167.282 75.4165 177.003 67.6107 186.631C68.7261 187.098 71.0158 188.159 71.2515 188.664Z" fill="#7D9561"/>
<path d="M74.1344 197.321C75.3656 193.362 72.0936 190.195 70.3037 189.106L63.1413 194.369L49.4663 215.364L50.5351 233.329L59.5473 240.282L62.7282 238.029C59.1743 219.684 72.5955 202.27 74.1344 197.321Z" fill="#374923"/>
<path d="M120.477 242.259C120.161 242.406 119.824 243.333 117.633 243.585M115.443 243.837C102.09 243.524 72.045 240.686 58.6863 231.836M54.9177 227.054C54.4757 226.106 59.1155 204.709 70.1546 194.561M83.1082 120.05L83.8449 121.63M85.3183 124.789C87.9845 129.957 94.2848 143.688 98.1561 157.27" stroke="#161719" stroke-linejoin="round"/>
<path d="M49.005 234.043C49.8794 234.763 50.6588 235.319 51.2505 235.688C70.434 247.13 101.857 250.172 108.238 250.659C114.619 251.145 121.359 249.925 125.488 247.231C128.791 245.075 129.254 238.807 129.072 235.943C125.958 224.316 127.519 213.202 127.543 206.267C127.568 199.332 124.446 196.325 122.828 196.156C119.459 195.804 110.411 195.099 101.178 195.097C91.9445 195.094 77.3798 190.807 71.2515 188.664C71.0158 188.159 68.7261 187.098 67.6107 186.631M49.005 234.043C46.4043 231.901 42.9632 228.309 41.1235 223.87C38.6653 217.938 27.5975 191.839 22.3709 179.53C19.9579 172.706 20.0278 154.542 39.6118 136.486L46.3534 129.496L33.5088 120.098C44.2859 117.637 69.7616 113.041 85.4477 114.343C99.764 132.671 105.187 168.224 105.187 168.224L89.3091 161.395C83.95 167.282 75.4165 177.003 67.6107 186.631M49.005 234.043C47.4471 223.998 49.5911 213.895 50.8579 210.099C53.7178 204.464 60.3493 195.588 67.6107 186.631" stroke="#161719" stroke-width="6" stroke-linejoin="round"/>
</svg>
